<?xml version="1.0" encoding="utf-8"?>
<!-- Generator: Adobe Illustrator 28.2.0, SVG Export Plug-In . SVG Version: 6.00 Build 0)  -->
<svg version="1.1" id="Capa_1" xmlns="http://www.w3.org/2000/svg" xmlns:xlink="http://www.w3.org/1999/xlink" x="0px" y="0px"
	 viewBox="0 0 276.9 68.3" style="enable-background:new 0 0 276.9 68.3;" xml:space="preserve">
<style type="text/css">
	.st0{fill:#1C1C1C;}
	.st1{fill:#00B4FF;}
</style>
<g>
	<g>
		<g>
			<path class="st0" d="M97.9,16.3h11.8v12h0.1c2-2.5,5.4-3.6,10.3-3.6c7.7,0,14.7,4.2,14.7,13.8c0,9.6-7.1,13.8-14.7,13.8
				c-5.3,0-8.5-1.3-10.7-3.8h-0.1v2.7H97.9V16.3z M116.2,44.4c4.6,0,6.5-2.5,6.5-5.9c0-3.3-2.2-5.9-6.4-5.9c-4.6,0-6.5,2.2-6.5,5.9
				C109.7,42.2,111.7,44.4,116.2,44.4z"/>
			<path class="st0" d="M139.1,16.3h11.8v6.5h-11.8V16.3z M139.1,25.4h11.8v25.9h-11.8V25.4z"/>
			<path class="st0" d="M156.6,16.3h11.8v6.5h-11.8V16.3z M156.6,25.4h11.8v25.9h-11.8V25.4z"/>
			<path class="st0" d="M177.2,32.8h-5.5v-7.4h5.5v-2.7c0-4.7,2.8-6.6,10.5-6.6c2.3,0,5.3,0,7.8,0.3v6.2h-3.6
				c-2.2,0-2.8,0.7-2.8,2.1v0.8h6.4v7.4h-6.4v18.5h-11.8V32.8z"/>
			<path class="st0" d="M223.3,35.8c-0.1-1.6-0.9-2.6-2.2-3.3c-1.1-0.6-2.7-0.8-4.3-0.8c-5.3,0-7.2,2.9-7.2,6.4c0,4,2.4,6.5,7.1,6.5
				c3.3,0,5.8-0.9,6.6-4.3h12.4c-1.2,10.7-10.9,12-19,12c-10.9,0-19.4-3.3-19.4-14.1c0-10.6,8.5-13.9,19.4-13.9
				c11.1,0,17.8,2.8,19,11.5H223.3z"/>
			<path class="st0" d="M257.7,24.4c13.4,0,19.2,4.5,19.2,14c0,9.6-5.8,14-19.2,14c-13.4,0-19.2-4.5-19.2-14
				C238.5,28.8,244.3,24.4,257.7,24.4z M257.7,44.7c4.8,0,6.8-2.2,6.8-6.3c0-4.1-2-6.3-6.8-6.3c-4.7,0-6.8,2.2-6.8,6.3
				C250.9,42.5,252.9,44.7,257.7,44.7z"/>
		</g>
	</g>
	<g>
		<path class="st1" d="M51.2,0H34.1H17.1H0v17.1v17.1v17.1v17.1h17.1h17.1h17.1h17.1V51.2V34.1V17.1V0H51.2z M49.6,34.1v15.4H34.1
			H18.7V34.1V18.7h15.4h15.4V34.1z"/>
	</g>
</g>
</svg>
